<?xml version="1.0" encoding="UTF-8"?>
<svg version="1.1" xmlns="http://www.w3.org/2000/svg" width="414" height="417">
<path d="M0 0 C6.08516473 -0.22038826 11.16411024 0.01579748 17 2 C20.39802304 3.00028384 23.72269843 3.29411836 27.25 3.5625 C28.32765625 3.64628906 29.4053125 3.73007812 30.515625 3.81640625 C31.33546875 3.87699219 32.1553125 3.93757813 33 4 C34.00302224 7.76133339 34 11.11433294 34 15 C38.6878921 15.82287468 43.51715039 16.53511759 47.74609375 13.92041016 C51.49235708 10.94187596 54.77291976 7.52461247 58 4 C58.99 4.33 59.98 4.66 61 5 C61.35035421 8.39973344 61.49496245 11.60977336 61 15 C57.17077912 19.02559119 53.26322333 19.49176223 47.953125 19.7265625 C45.76557121 19.83293643 45.76557121 19.83293643 44 22 C41.31160615 22.26991906 38.70858064 22.08737357 36 22 C36.28151916 24.12636813 36.57553263 26.25108528 36.875 28.375 C37.03742188 29.55835937 37.19984375 30.74171875 37.3671875 31.9609375 C37.7302585 35.09566659 37.7302585 35.09566659 40 37 C40.0825 37.94875 40.165 38.8975 40.25 39.875 C41.03312136 46.51754725 44.49065012 53.93238479 49.640625 58.17578125 C50.41921875 58.77777344 51.1978125 59.37976563 52 60 C52.33 60.99 52.66 61.98 53 63 C54.65948148 64.01187895 56.32580562 65.0126546 58 66 C58 66.66 58 67.32 58 68 C58.99 68.33 59.98 68.66 61 69 C62.578125 71.1875 62.578125 71.1875 64.25 74 C68.01359868 80.11883168 71.98987366 86.05566877 77.14453125 91.09765625 C79.26573182 93.27244505 79.88146028 95.2036507 81 98 C82.31200404 99.35432675 83.64631404 100.68733482 85 102 C86.03435556 103.64556566 87.02763513 105.3170608 88 107 C88.99978312 108.41681973 89.99980657 109.83346989 91 111.25 C93.49794487 114.96018282 94.9068714 118.34344576 96.15234375 122.609375 C97.1702357 125.48011174 98.56095631 127.97649402 100.0625 130.625 C102.3648324 134.70666583 103.93972447 138.40547268 105 143 C105.350625 144.11375 105.70125 145.2275 106.0625 146.375 C106.98801022 149.9536395 107.31725857 153.2098443 107.4609375 156.88671875 C107.83979631 159.19493251 107.83979631 159.19493251 110.01953125 160.796875 C112.88401771 163.98340432 112.43170058 166.3575967 112.3125 170.5625 C112.30283203 171.23474609 112.29316406 171.90699219 112.28320312 172.59960938 C112.21369086 175.64303764 111.9678966 178.09631019 111 181 C110.80430901 183.22335208 110.65646244 185.45103898 110.53515625 187.6796875 C110.45662371 189.01433727 110.37783978 190.34897226 110.29882812 191.68359375 C110.17936544 193.77897415 110.06253066 195.87442667 109.95043945 197.97021484 C109.84028484 199.99887571 109.71961214 202.02670655 109.59765625 204.0546875 C109.53070557 205.26624512 109.46375488 206.47780273 109.39477539 207.72607422 C109.01773587 210.85291401 108.27894865 213.14613459 107 216 C106.56111075 218.20254027 106.56111075 218.20254027 106.375 220.3125 C106.25125 221.529375 106.1275 222.74625 106 224 C105.34 224 104.68 224 104 224 C104.01740234 224.92232422 104.01740234 224.92232422 104.03515625 225.86328125 C104.04417969 226.67152344 104.05320312 227.47976563 104.0625 228.3125 C104.07410156 229.11300781 104.08570313 229.91351563 104.09765625 230.73828125 C104 233 104 233 103 236 C101.1799037 236.96156031 99.35075942 237.90850134 97.48828125 238.78515625 C90.60812117 242.1442297 84.11078185 246.24439454 77.72241211 250.45019531 C72.07665757 254.16615358 66.4606783 257.41150038 60.20703125 260.02734375 C57.78457191 261.01936578 57.78457191 261.01936578 55 263 C52.15879766 262.64484971 49.71952248 261.90650749 47 261 C46.55269531 261.44730469 46.10539062 261.89460938 45.64453125 262.35546875 C42.09635417 265.90364583 38.54817708 269.45182292 35 273 C34.55269531 273.53391357 34.10539062 274.06782715 33.64453125 274.61791992 C31.48448955 276.43324 30.2326727 276.37365659 27.4375 276.36328125 C26.11878906 276.36231445 26.11878906 276.36231445 24.7734375 276.36132812 C23.85820312 276.34521484 22.94296875 276.32910156 22 276.3125 C20.62714844 276.31733398 20.62714844 276.31733398 19.2265625 276.32226562 C12.40082908 276.26721939 12.40082908 276.26721939 9 274 C9 273.34 9 272.68 9 272 C8.01 272 7.02 272 6 272 C6.33 270.68 6.66 269.36 7 268 C11.875 270.875 11.875 270.875 13 272 C23.16850591 273.12339542 23.16850591 273.12339542 32.80078125 270.578125 C34.79299147 268.8222787 36.40580332 267.11985073 38 265 C38.55945313 264.26265625 39.11890625 263.5253125 39.6953125 262.765625 C40.34113281 261.89164062 40.34113281 261.89164062 41 261 C40.34 261.33 39.68 261.66 39 262 C37.2329049 262.17470145 35.46057351 262.29780481 33.6875 262.39453125 C32.07294922 262.49797852 32.07294922 262.49797852 30.42578125 262.60351562 C28.17375223 262.7408971 25.92112026 262.86878388 23.66796875 262.98632812 C16.76187207 263.44919226 9.9671633 264.20773458 4 268 C2.71108947 270.03723897 2.71108947 270.03723897 2 272 C-1.12401779 272.22537111 -4.24911333 272.42738648 -7.375 272.625 C-8.70917969 272.72167969 -8.70917969 272.72167969 -10.0703125 272.8203125 C-11.34648437 272.89765625 -11.34648437 272.89765625 -12.6484375 272.9765625 C-13.82672119 273.05511475 -13.82672119 273.05511475 -15.02880859 273.13525391 C-17 273 -17 273 -19 271 C-21.39456094 270.35723154 -21.39456094 270.35723154 -24.0625 269.9375 C-28.90277778 269.09722222 -28.90277778 269.09722222 -30 268 C-30.04063832 266.33382885 -30.042721 264.66611905 -30 263 C-30.67724121 263.16081055 -31.35448242 263.32162109 -32.05224609 263.48730469 C-37.46614829 264.42893088 -42.97494258 264.22525599 -48.45703125 264.24023438 C-50.62538137 264.25000172 -52.79280688 264.28109204 -54.9609375 264.3125 C-56.34114024 264.31902521 -57.7213497 264.32427757 -59.1015625 264.328125 C-60.35275879 264.3374707 -61.60395508 264.34681641 -62.89306641 264.35644531 C-66 264 -66 264 -67.99365234 262.72949219 C-69 261 -69 261 -68 257 C-65.36 257.66 -62.72 258.32 -60 259 C-59.67 258.01 -59.34 257.02 -59 256 C-54.38 256 -49.76 256 -45 256 C-50.28 255.67 -55.56 255.34 -61 255 C-60 252 -60 252 -57 250 C-57 249.01 -57 248.02 -57 247 C-57.99 247 -58.98 247 -60 247 C-65.54761336 242.59035861 -68.12711447 236.63702304 -69.75 229.875 C-71.1572455 226.63833535 -72.23700626 225.98442768 -75.02490234 223.9519043 C-78.23821946 221.19522308 -79.56627541 219.51390465 -79.93994141 215.26489258 C-79.95209847 213.47457102 -79.92036223 211.68357168 -79.8515625 209.89453125 C-79.84498627 208.93407394 -79.83841003 207.97361664 -79.83163452 206.98405457 C-79.8002727 203.92500472 -79.7123894 200.87040482 -79.625 197.8125 C-79.60199334 195.77803112 -79.58243008 193.74352023 -79.56640625 191.70898438 C-79.25632833 166.3844925 -79.25632833 166.3844925 -75 160 C-74.48195331 158.57604966 -74.00547723 157.13656112 -73.5625 155.6875 C-72.3537453 151.91472017 -70.80502948 148.53157942 -69 145 C-68.30028027 143.01132287 -67.62335603 141.01391949 -67 139 C-66.34 139 -65.68 139 -65 139 C-63.47700477 136.06279492 -62.19899698 133.0831351 -61 130 C-60.34 130 -59.68 130 -59 130 C-58.67 128.68 -58.34 127.36 -58 126 C-57.34 126 -56.68 126 -56 126 C-55.71125 125.236875 -55.4225 124.47375 -55.125 123.6875 C-54 121 -54 121 -52 118 C-51.34 118 -50.68 118 -50 118 C-49.7525 117.319375 -49.505 116.63875 -49.25 115.9375 C-47.75802092 112.43134917 -45.93164489 109.28379632 -44 106 C-43.34 106 -42.68 106 -42 106 C-41.773125 105.13375 -41.54625 104.2675 -41.3125 103.375 C-39.74110401 99.33426745 -37.97907516 97.12802891 -35 94 C-34.34 94 -33.68 94 -33 94 C-32.62681641 93.12408203 -32.62681641 93.12408203 -32.24609375 92.23046875 C-30.82504563 89.68683716 -29.26807085 88.20592302 -27.0625 86.3125 C-26.37285156 85.71050781 -25.68320313 85.10851562 -24.97265625 84.48828125 C-23 83 -23 83 -20 82 C-19.86980469 81.40832031 -19.73960937 80.81664062 -19.60546875 80.20703125 C-18.72817995 77.00917209 -16.82414421 75.80118564 -14.3125 73.6875 C-5.98211646 66.55425136 -5.98211646 66.55425136 -1 57 C-0.34 57 0.32 57 1 57 C1.103125 56.360625 1.20625 55.72125 1.3125 55.0625 C1.87058479 52.57648593 2.56037087 50.43695056 3.4375 48.0625 C5.22393133 42.88531793 5.83085911 37.65538042 6.53515625 32.2421875 C7.05236742 28.63474828 7.84980716 25.45057851 9 22 C9.33 20.96875 9.66 19.9375 10 18.875 C10.92553565 16.21408501 11.92747383 13.60470641 13 11 C11.02 10.67 9.04 10.34 7 10 C7 9.01 7 8.02 7 7 C6.05125 6.690625 5.1025 6.38125 4.125 6.0625 C1 5 1 5 -1 4 C-0.67 2.68 -0.34 1.36 0 0 Z " fill="#F1F1F1" transform="translate(184,59)"/>
<path d="M0 0 C3.83682273 1.27894091 4.07042359 2.52676247 6 6 C8.3741927 10.16292572 8.3741927 10.16292572 12 13 C12.99623687 16.10591496 13.84639805 19.16616084 14.4375 22.375 C14.623125 22.91125 14.80875 23.4475 15 24 C16.485 24.495 16.485 24.495 18 25 C18.66666667 26.33333333 19.33333333 27.66666667 20 29 C20.7425 29.7425 21.485 30.485 22.25 31.25 C26.32896666 35.32896666 29.80500608 39.80121118 32.5625 44.875 C34.38571757 47.57019119 36.01599052 47.8355085 39 49 C43 53.21621622 43 53.21621622 43 57 C44.485 57.495 44.485 57.495 46 58 C47.02137457 59.65365406 48.01612294 61.32376502 49 63 C50.55714335 64.85659399 52.16088605 66.65829588 53.79296875 68.44921875 C55 70 55 70 55 72 C55.886875 72.226875 56.77375 72.45375 57.6875 72.6875 C61.4641247 74.18389846 63.38617976 75.92491737 66 79 C66 79.66 66 80.32 66 81 C66.99 81.33 67.98 81.66 69 82 C73 86.34285714 73 86.34285714 73 90 C73.99 90.33 74.98 90.66 76 91 C76.50401036 92.64643384 76.994533 94.29884861 77.3984375 95.97265625 C78.05019176 98.16915274 78.97206872 99.98780127 80.0625 102 C81.97199311 105.62803691 82.58208712 108.90445375 83 113 C83.33 113.33 83.66 113.66 84 114 C85.20819041 120.89455891 85.32697694 127.78230157 85.4050293 134.76049805 C85.42665333 136.21028398 85.46080969 137.65993782 85.50756836 139.10913086 C85.94047068 152.70472871 85.94047068 152.70472871 82.109375 157.80078125 C81.08952764 158.88308413 80.05434652 159.95127621 79 161 C77.65783025 162.99408077 76.3227887 164.99301025 75 167 C73.375 169.375 73.375 169.375 72 171 C71.34 171 70.68 171 70 171 C69.95512451 170.04335449 69.91024902 169.08670898 69.86401367 168.10107422 C69.69108278 164.48097011 69.50277682 160.86178895 69.31030273 157.24267578 C69.22974493 155.68949564 69.1531127 154.13610587 69.08081055 152.58251953 C69.2312205 136.24395124 69.2312205 136.24395124 64 122 C63.53155349 119.71445844 63.10098656 117.42112091 62.6875 115.125 C59.14905206 96.79294321 50.01316501 74.74943349 35 63 C33.96743481 61.69172369 32.9692053 60.35588306 32 59 C27.61816798 52.9763963 22.83969479 49.69944338 16.0234375 46.9140625 C14 46 14 46 12 44.25 C8.69325972 42.18328733 4.77990883 42.28996188 1 43 C-0.66928935 44.3359549 -0.66928935 44.3359549 -2 46 C-2.78375 46.763125 -3.5675 47.52625 -4.375 48.3125 C-7.07645358 50.97882803 -7.07645358 50.97882803 -9.4375 54.125 C-12 57 -12 57 -14.75390625 58.30859375 C-18.65365313 60.34059183 -21.37420452 62.88966379 -24.5 65.9375 C-30.35856141 71.6081978 -30.35856141 71.6081978 -33.9609375 73.80859375 C-38.27830059 76.92175659 -41.02266417 80.84177505 -44.125 85.125 C-44.73214844 85.929375 -45.33929688 86.73375 -45.96484375 87.5625 C-49.56438304 92.47167559 -52.11341851 97.12986258 -54.06762695 102.90332031 C-55.09943197 105.22359825 -56.03627285 106.13916175 -58.0625 107.625 C-61.3289763 110.26598084 -62.12154051 111.86453464 -63.29223633 115.76464844 C-64 118 -64 118 -64.77563477 119.81689453 C-67.58490873 126.71214864 -67.38790726 133.65528646 -67.28125 140.96630859 C-67.24996446 143.12745483 -67.24025223 145.28786777 -67.234375 147.44921875 C-68.01913951 157.91185773 -68.01913951 157.91185773 -65 167 C-64.45919972 170.25843529 -64.03393882 173.52682882 -63.59765625 176.80078125 C-63.06527462 179.65058882 -62.34802725 181.48853014 -61 184 C-60.875 186.75 -60.875 186.75 -61 189 C-60.34 189 -59.68 189 -59 189 C-58.566875 190.19625 -58.13375 191.3925 -57.6875 192.625 C-56.68323172 195.32217767 -55.60538125 197.78923751 -54.3125 200.375 C-53 203 -53 203 -53 205 C-56.19938625 205 -58.313289 204.62870116 -60.7109375 202.43359375 C-62.53032957 200.33017893 -64.26965303 198.17713241 -66 196 C-67.15915464 194.66013083 -68.32572711 193.32663939 -69.5 192 C-70.07105469 191.34257812 -70.64210938 190.68515625 -71.23046875 190.0078125 C-72.44337488 188.63157905 -73.67637045 187.27286747 -74.92578125 185.9296875 C-75.85970703 184.91261719 -75.85970703 184.91261719 -76.8125 183.875 C-77.37582031 183.27429688 -77.93914062 182.67359375 -78.51953125 182.0546875 C-82.25167234 176.87498773 -82.28627438 171.38636769 -82.23046875 165.26953125 C-82.23001053 164.43846359 -82.22955231 163.60739594 -82.2290802 162.75114441 C-82.22606941 160.99708626 -82.21821838 159.24303052 -82.20581055 157.48901367 C-82.18767636 154.83827964 -82.1853004 152.18789872 -82.18554688 149.53710938 C-82.13736046 125.53391759 -82.13736046 125.53391759 -78 116 C-77.34 116 -76.68 116 -76 116 C-75.896875 114.9275 -75.79375 113.855 -75.6875 112.75 C-75.02797801 109.15260731 -74.54223809 107.54223809 -72 105 C-71.34 105 -70.68 105 -70 105 C-69.67 103.02 -69.34 101.04 -69 99 C-68.34 99 -67.68 99 -67 99 C-66.67 97.68 -66.34 96.36 -66 95 C-65.34 95 -64.68 95 -64 95 C-63.67 93.02 -63.34 91.04 -63 89 C-62.34 89 -61.68 89 -61 89 C-60.505 87.515 -60.505 87.515 -60 86 C-59.34 86 -58.68 86 -58 86 C-57.77183594 85.278125 -57.54367188 84.55625 -57.30859375 83.8125 C-55.73471322 80.4298314 -53.77485843 78.54905932 -51.0625 76 C-48.4066356 73.49668157 -46.23421105 71.39540667 -44.37109375 68.25 C-43 66 -43 66 -40 65 C-38.78130071 62.49552484 -38.78130071 62.49552484 -38 60 C-37.34 60 -36.68 60 -36 60 C-35.34 58.02 -34.68 56.04 -34 54 C-33.01 54 -32.02 54 -31 54 C-30.95875 53.319375 -30.9175 52.63875 -30.875 51.9375 C-29.64701039 47.81496347 -27.15076207 44.90003829 -24 42 C-23.34 42 -22.68 42 -22 42 C-21.814375 40.5459375 -21.814375 40.5459375 -21.625 39.0625 C-21.41875 38.051875 -21.2125 37.04125 -21 36 C-20.34 35.67 -19.68 35.34 -19 35 C-18.28752268 33.3523962 -17.62599617 31.68236471 -17 30 C-16.34786461 28.65949948 -15.68620031 27.32338632 -15 26 C-14.34 26 -13.68 26 -13 26 C-12.505 24.515 -12.505 24.515 -12 23 C-11.34 23 -10.68 23 -10 23 C-9.67 21.02 -9.34 19.04 -9 17 C-8.34 17 -7.68 17 -7 17 C-6.896875 16.29875 -6.79375 15.5975 -6.6875 14.875 C-5.90640997 11.60862353 -4.57941257 8.9528148 -3 6 C-2.34 6 -1.68 6 -1 6 C-0.67 4.02 -0.34 2.04 0 0 Z " fill="#202020" transform="translate(197,105)"/>
<path d="M0 0 C3.58101948 -0.33311809 5.38738156 -0.46360314 8.3125 1.75 C9.199375 2.4925 10.08625 3.235 11 4 C12.48431752 4.68110365 13.98628262 5.32450701 15.5 5.9375 C19.56956582 7.66908678 22.08662659 9.60106436 25 13 C25.46535156 13.52207031 25.93070312 14.04414063 26.41015625 14.58203125 C30 18.69185237 30 18.69185237 30 21 C31.485 21.495 31.485 21.495 33 22 C33.495 22.99 33.495 22.99 34 24 C35.485 24.495 35.485 24.495 37 25 C37.93864128 26.52963764 38.85924855 28.07235881 39.703125 29.65625 C41.33122159 32.59859323 43.13831538 35.40918218 44.9375 38.25 C52.61110819 50.61117037 57.61668786 63.47522253 59 78 C59.6539978 79.33959288 60.32099896 80.6729055 61 82 C61.7645244 85.04472399 62.17719771 88.14430213 62.625 91.25 C62.75616211 92.15935303 62.88732422 93.06870605 63.02246094 94.00561523 C66.52190447 120.82180561 66.52190447 120.82180561 63 131 C61.38263741 132.3927289 59.7074998 133.71937515 58 135 C56.29115995 136.62339805 54.62553283 138.29319053 53 140 C51.6696875 141.36125 51.6696875 141.36125 50.3125 142.75 C47.81622515 146.25827817 47.07861 148.78484812 46.359375 152.94921875 C46 155 46 155 45 158 C43.29760742 158.69189453 43.29760742 158.69189453 41.10546875 159.1328125 C40.31462891 159.29910156 39.52378906 159.46539062 38.70898438 159.63671875 C37.87689453 159.79785156 37.04480469 159.95898438 36.1875 160.125 C34.55595969 160.46079227 32.92444829 160.79672507 31.29296875 161.1328125 C30.20278442 161.34768311 30.20278442 161.34768311 29.09057617 161.56689453 C27.04413973 161.99085556 25.02368909 162.47902774 23 163 C23 162.34 23 161.68 23 161 C24.65 160.67 26.3 160.34 28 160 C28 159.34 28 158.68 28 158 C29.64556566 156.96564444 31.3170608 155.97236487 33 155 C37.25236073 152.12965651 39.42344313 149.0063621 41.88671875 144.609375 C42.25410156 144.07828125 42.62148437 143.5471875 43 143 C43.66 143 44.32 143 45 143 C45.103125 142.46375 45.20625 141.9275 45.3125 141.375 C46 139 46 139 47.5 136.0625 C49.60333847 131.76818395 50.12616464 127.91844614 50.1328125 123.171875 C50.13410156 122.29015625 50.13539063 121.4084375 50.13671875 120.5 C50.13285156 119.5925 50.12898438 118.685 50.125 117.75 C50.12886719 116.82703125 50.13273437 115.9040625 50.13671875 114.953125 C50.13542969 114.0765625 50.13414062 113.2 50.1328125 112.296875 C50.13112061 111.09562988 50.13112061 111.09562988 50.12939453 109.87011719 C50.20465286 107.98578226 50.20465286 107.98578226 49 107 C48.54953058 103.54009198 48.18206272 100.081024 47.83789062 96.609375 C47.33087834 91.87726036 46.39561597 87.5694299 45 83 C44.58083646 81.04219958 44.16407291 79.0838834 43.75 77.125 C41.93017919 69.72501434 38.35991249 64.31621755 33 59 C30.79192059 55.96389082 29.0831462 53.21150785 27.70703125 49.7109375 C26.0088344 45.67359426 23.55669923 42.64737457 20.6875 39.375 C20.22666016 38.8284375 19.76582031 38.281875 19.29101562 37.71875 C15.24011612 33.00866379 10.84167702 28.76397212 5.3125 25.8125 C2 24 2 24 -1 22 C-4.38988759 21.46237175 -7.60945742 21.45931547 -11 22 C-13.20954506 24.07139596 -13.20954506 24.07139596 -15 27 C-16.43051104 28.13998172 -17.8927008 29.24072147 -19.375 30.3125 C-23.31042885 33.26245078 -26.05796002 36.3390977 -28.80859375 40.3984375 C-30 42 -30 42 -32 43 C-32.88310925 44.82159499 -33.6828298 46.68405299 -34.4375 48.5625 C-35.10265625 50.20025391 -35.10265625 50.20025391 -35.78125 51.87109375 C-36.71873131 54.27789674 -37.59560444 56.68450513 -38.4375 59.125 C-40.61176504 65.04245997 -43.99822408 70.63426482 -48.0625 75.4375 C-50.62705479 78.82933053 -52.15886211 82.49216427 -53.8515625 86.37890625 C-54.54741085 87.96704994 -55.28127319 89.54020698 -56.08203125 91.078125 C-57.05104289 93.10686427 -57.57338919 94.99677678 -58.0625 97.1875 C-59 101 -59 101 -60 102 C-60.09823937 103.66429051 -60.12973631 105.33281931 -60.125 107 C-60.12757813 107.9075 -60.13015625 108.815 -60.1328125 109.75 C-60.25173779 111.96966611 -60.25173779 111.96966611 -59 113 C-58.80527406 114.72078465 -58.61591077 116.44237453 -58.45605469 118.16674805 C-57.52065177 127.90757302 -54.69101185 135.57365375 -50.33984375 144.34765625 C-47.32067818 150.56442507 -45.1819926 155.04693711 -46 162 C-50.28428009 161.12366998 -51.69826207 160.44829635 -54.1875 156.75 C-54.81066462 155.50936177 -55.41196711 154.25767034 -56 153 C-56.48984375 152.06671875 -56.9796875 151.1334375 -57.484375 150.171875 C-59.00878771 146.98160922 -60.06593372 143.88913228 -61.0625 140.5 C-62.00923349 137.30620027 -62.95753093 134.12626818 -64.01953125 130.96875 C-67.6839698 119.87323884 -68.31701657 109.23855331 -68.375 97.625 C-68.38869629 96.32949219 -68.40239258 95.03398437 -68.41650391 93.69921875 C-68.38201611 86.47355961 -67.75733941 80.6963957 -65 74 C-64.34 74 -63.68 74 -63 74 C-63.103125 73.13375 -63.20625 72.2675 -63.3125 71.375 C-62.87889734 66.69209126 -61.33566721 65.25809356 -58 62 C-57.01 62 -56.02 62 -55 62 C-54.95875 61.030625 -54.9175 60.06125 -54.875 59.0625 C-54.12817302 53.84522981 -51.06418541 50.14691144 -48 46 C-47.17822266 44.83597656 -47.17822266 44.83597656 -46.33984375 43.6484375 C-43.35612822 39.49909354 -43.35612822 39.49909354 -42 38 C-41.34 38 -40.68 38 -40 38 C-39.773125 37.2575 -39.54625 36.515 -39.3125 35.75 C-37.7410439 32.4574253 -36.00004284 31.02502891 -33 29 C-32.34 29 -31.68 29 -31 29 C-30.505 27.515 -30.505 27.515 -30 26 C-29.34 26 -28.68 26 -28 26 C-27.505 24.515 -27.505 24.515 -27 23 C-26.34 23 -25.68 23 -25 23 C-25 22.34 -25 21.68 -25 21 C-23.03501678 19.61558 -21.02951535 18.28796166 -19 17 C-18.278125 16.4225 -17.55625 15.845 -16.8125 15.25 C-15 14 -15 14 -12 14 C-12 13.34 -12 12.68 -12 12 C-11.34 12 -10.68 12 -10 12 C-9.67 10.68 -9.34 9.36 -9 8 C-8.34 8 -7.68 8 -7 8 C-6.566875 7.071875 -6.566875 7.071875 -6.125 6.125 C-5 4 -5 4 -3 2 C-2.01 2 -1.02 2 0 2 C0 1.34 0 0.68 0 0 Z " fill="#212121" transform="translate(200,150)"/>
<path d="M0 0 C0.66 0 1.32 0 2 0 C2 0.99 2 1.98 2 3 C2.928125 3.37125 2.928125 3.37125 3.875 3.75 C6 5 6 5 7 7.0625 C7.495 8.0215625 7.495 8.0215625 8 9 C9.33261107 9.33620921 10.66613462 9.66880213 12 10 C13.93904966 10.97764934 15.85490842 12.00215114 17.75 13.0625 C18.73484375 13.61035156 19.7196875 14.15820312 20.734375 14.72265625 C21.85585937 15.35494141 21.85585937 15.35494141 23 16 C23 16.66 23 17.32 23 18 C24.1446875 18.309375 24.1446875 18.309375 25.3125 18.625 C28.87312928 20.44671731 29.37865094 22.40483469 31 26 C31.99 27.2375 31.99 27.2375 33 28.5 C36.4162972 32.7703715 38.48996694 36.44704136 38 42 C38.99 42 39.98 42 41 42 C42.10030326 45.30090979 42.12933036 47.76750625 42.1328125 51.2421875 C42.13410156 52.47324219 42.13539063 53.70429688 42.13671875 54.97265625 C42.13285156 56.26042969 42.12898438 57.54820312 42.125 58.875 C42.12886719 60.15503906 42.13273437 61.43507813 42.13671875 62.75390625 C42.13542969 63.98753906 42.13414062 65.22117187 42.1328125 66.4921875 C42.13168457 67.61995605 42.13055664 68.74772461 42.12939453 69.90966797 C41.91934262 74.92634172 41.56453214 77.51607286 38 81 C36.95835572 83.52023689 36.95835572 83.52023689 36.125 86.3125 C34.40377222 91.27984556 32.65722189 94.25357757 29 98 C28.113125 98.928125 27.22625 99.85625 26.3125 100.8125 C24 103 24 103 22 104 C23.30936898 101.07909997 24.75619462 99.24380538 27 97 C27.495 95.515 27.495 95.515 28 94 C28.66 94 29.32 94 30 94 C30.103125 92.824375 30.20625 91.64875 30.3125 90.4375 C30.83122958 86.23579041 32.21765108 82.84987367 34 79 C36.43658645 72.60389165 36.3312628 66.76961772 36.3125 60 C36.32861328 58.83726562 36.34472656 57.67453125 36.36132812 56.4765625 C36.41077375 48.30301998 36.41077375 48.30301998 33 41 C29.35099576 37.35099576 24.95319015 35.44761599 20.3671875 33.22265625 C15.84370018 30.88626759 12.5514027 27.57369183 9 24 C8.95101562 25.01320312 8.90203125 26.02640625 8.8515625 27.0703125 C8.77647436 28.42189911 8.70092919 29.77346038 8.625 31.125 C8.57859375 32.12273437 8.57859375 32.12273437 8.53125 33.140625 C8.28115159 37.39229801 7.66908767 41.07204102 6 45 C4.36935236 46.05771739 2.69719127 47.05273046 1 48 C0.195625 48.99 -0.60875 49.98 -1.4375 51 C-4.18664247 54.21850825 -6.13809291 55.37799902 -10 57 C-11.19625 57.515625 -12.3925 58.03125 -13.625 58.5625 C-15.42371507 59.32861938 -17.22268641 60.09414734 -19.0234375 60.85546875 C-21.34439262 62.19942102 -22.44773039 63.57344804 -24 65.75 C-24.51046875 66.46414063 -25.0209375 67.17828125 -25.546875 67.9140625 C-26.02640625 68.60242188 -26.5059375 69.29078125 -27 70 C-27.7425 71.03125 -28.485 72.0625 -29.25 73.125 C-33.21492268 79.63880154 -33.25558906 85.46155963 -33.125 92.875 C-33.11597656 93.84953125 -33.10695312 94.8240625 -33.09765625 95.828125 C-33.07421623 98.21900728 -33.04140442 100.60937261 -33 103 C-32.34 103.33 -31.68 103.66 -31 104 C-31 97.4 -31 90.8 -31 84 C-30.34 84 -29.68 84 -29 84 C-28.67 81.03 -28.34 78.06 -28 75 C-27.34 75 -26.68 75 -26 75 C-25.34 73.02 -24.68 71.04 -24 69 C-23.34 69 -22.68 69 -22 69 C-22 68.34 -22 67.68 -22 67 C-17.64705882 63 -17.64705882 63 -14 63 C-14 62.34 -14 61.68 -14 61 C-11.03 60.505 -11.03 60.505 -8 60 C-8 59.34 -8 58.68 -8 58 C-6.906875 57.5875 -5.81375 57.175 -4.6875 56.75 C-1.44280475 55.38277962 0.05024489 53.97594201 2 51 C2.66 51 3.32 51 4 51 C4 50.01 4 49.02 4 48 C6.97 47.505 6.97 47.505 10 47 C10.33 41.72 10.66 36.44 11 31 C11.99 31 12.98 31 14 31 C14.721875 31.7425 15.44375 32.485 16.1875 33.25 C19.50637331 36.49512057 22.83494051 38.07701891 27 40 C30 41.4375 30 41.4375 32 43 C32.3125 45.6875 32.3125 45.6875 32 48 C32.66 48 33.32 48 34 48 C34.11786788 51.93724069 34.18780174 55.87401761 34.25 59.8125 C34.28351563 60.91271484 34.31703125 62.01292969 34.3515625 63.14648438 C34.44358265 70.94519175 33.02866573 76.85627506 30 84 C29.54897133 85.3706219 29.10856891 86.74487964 28.6875 88.125 C27.12894435 92.30398438 24.51237507 95.46515254 21.70703125 98.890625 C20.26518576 100.6723105 18.98504128 102.44852634 17.75 104.375 C16.28475696 106.57286456 15.07438077 108.37657157 13 110 C12.01 110 11.02 110 10 110 C10.31710938 109.43796875 10.63421875 108.8759375 10.9609375 108.296875 C12.06874525 105.84803683 12.38975399 103.91612145 12.625 101.25 C12.69976562 100.45078125 12.77453125 99.6515625 12.8515625 98.828125 C12.90054688 98.22484375 12.94953125 97.6215625 13 97 C13.66 97 14.32 97 15 97 C15.03867188 95.64068359 15.03867188 95.64068359 15.078125 94.25390625 C15.39597762 87.4272989 15.9779472 81.98549537 19.078125 75.875 C21.64858921 70.64693721 21.11362187 64.6810936 21 59 C19.55962331 59.93307421 18.12281015 60.87165077 16.6875 61.8125 C15.48673828 62.59560547 15.48673828 62.59560547 14.26171875 63.39453125 C12.26066076 64.81497138 10.66951969 66.21632511 9 68 C4.681312 72.318688 2.07330002 73.56395799 -4.046875 73.76171875 C-6.23605036 73.82520343 -6.23605036 73.82520343 -8 76 C-8.78375 76.12375 -9.5675 76.2475 -10.375 76.375 C-13.70482309 77.16781502 -14.74284305 78.46069843 -17 81 C-18.2375 82.175625 -18.2375 82.175625 -19.5 83.375 C-25.39684015 89.56668216 -26.49037811 93.82813223 -26.82421875 102.26953125 C-27 105 -27 105 -28 106 C-29.68183948 106.23287008 -31.3712416 106.41264166 -33.0625 106.5625 C-33.98160156 106.64628906 -34.90070313 106.73007812 -35.84765625 106.81640625 C-36.55792969 106.87699219 -37.26820313 106.93757813 -38 107 C-38.495 104.525 -38.495 104.525 -39 102 C-37.68 102 -36.36 102 -35 102 C-35.33 101.34 -35.66 100.68 -36 100 C-38.52733235 99.34444881 -38.52733235 99.34444881 -41 99 C-41.05785647 95.04172765 -41.09354717 91.0835633 -41.125 87.125 C-41.14175781 85.99707031 -41.15851563 84.86914062 -41.17578125 83.70703125 C-41.18222656 82.63066406 -41.18867188 81.55429687 -41.1953125 80.4453125 C-41.20578613 79.45031738 -41.21625977 78.45532227 -41.22705078 77.43017578 C-41 75 -41 75 -39 73 C-38.32558869 71.3364521 -37.6599679 69.66933058 -37 68 C-35.5 65.1875 -35.5 65.1875 -34 63 C-33.34 63 -32.68 63 -32 63 C-31.9175 62.484375 -31.835 61.96875 -31.75 61.4375 C-30.67859775 57.95544268 -28.86476395 55.12799115 -27 52 C-26.34 52 -25.68 52 -25 52 C-24.979375 51.29875 -24.95875 50.5975 -24.9375 49.875 C-23.71324812 46.12062758 -21.67747783 44.76775983 -18.59375 42.4296875 C-16.72051898 40.9865905 -16.72051898 40.9865905 -16 38 C-15.01 38 -14.02 38 -13 38 C-12.67 36.35 -12.34 34.7 -12 33 C-11.34 33 -10.68 33 -10 33 C-10 31.68 -10 30.36 -10 29 C-9.34 29 -8.68 29 -8 29 C-8.061875 28.13375 -8.12375 27.2675 -8.1875 26.375 C-7.97027318 22.46491721 -6.85109482 20.42795337 -5 17 C-2.60923214 11.48013891 -1.15928432 5.89189209 0 0 Z " fill="#212121" transform="translate(195,198)"/>
<path d="M0 0 C8.63502756 -0.4390692 8.63502756 -0.4390692 13 3 C13.495 3.99 13.495 3.99 14 5 C15.64363134 5.72159424 17.31050386 6.39351421 19 7 C19 7.66 19 8.32 19 9 C19.7425 9.20625 20.485 9.4125 21.25 9.625 C24.80232558 11.40116279 25.92190632 13.67505011 28 17 C28.99 17.66 29.98 18.32 31 19 C32.03789581 20.64333504 33.03567924 22.31243867 34 24 C34.7734375 24.99 34.7734375 24.99 35.5625 26 C37 28 37 28 37.875 30.25 C40.00644627 35.460202 42.94803942 40.09156936 47 44 C49.9996768 47.99956907 51.03759746 52.31690756 52.25390625 57.0859375 C52.78567591 59.16290171 53.39336545 61.22104146 54.05078125 63.26171875 C55.17649246 67.69507523 55.44886582 71.88369765 55.625 76.4375 C55.66367188 77.26443359 55.70234375 78.09136719 55.7421875 78.94335938 C55.83553092 80.96191073 55.91880961 82.98092331 56 85 C56.66 85 57.32 85 58 85 C58.78290921 106.18204359 58.78290921 106.18204359 54 114 C53.45214844 114.89847656 52.90429688 115.79695313 52.33984375 116.72265625 C46.94346027 124.77844842 39.52263708 133.03090637 30 136 C28.68 136 27.36 136 26 136 C26 135.01 26 134.02 26 133 C26.99 133 27.98 133 29 133 C29.12375 132.38125 29.2475 131.7625 29.375 131.125 C30 129 30 129 32 127 C32.99 127 33.98 127 35 127 C35.268125 126.236875 35.53625 125.47375 35.8125 124.6875 C36.9750973 122.05635874 37.97291463 120.94262348 40 119 C41.17574711 116.90010348 41.17574711 116.90010348 42 115 C42.66 115 43.32 115 44 115 C44 113.02 44 111.04 44 109 C44.66 109 45.32 109 46 109 C46.185625 107.9171875 46.185625 107.9171875 46.375 106.8125 C47 104 47 104 48.02026367 101.76098633 C49.83017902 96.66047982 49.33238533 91.1770684 49.31567383 85.81762695 C49.31252467 83.7040597 49.33596051 81.59190908 49.36132812 79.47851562 C49.39328911 72.34214474 49.06492164 66.50992592 46 60 C46 59.34 46 58.68 46 58 C44.515 57.505 44.515 57.505 43 57 C41.97265625 55.36328125 41.97265625 55.36328125 41.0625 53.3125 C39.79272872 50.58175636 38.47536764 48.0941657 36.75 45.625 C35 43 35 43 35 41 C34.278125 40.73058594 33.55625 40.46117187 32.8125 40.18359375 C30.02424406 39.01020271 27.57552773 37.644035 25 36.0625 C24.175 35.55847656 23.35 35.05445313 22.5 34.53515625 C21.675 34.02855469 20.85 33.52195313 20 33 C18.70835937 32.25169922 18.70835937 32.25169922 17.390625 31.48828125 C13.69874699 29.18990622 11.05361685 26.87832736 9 23 C8.22010487 18.65993423 8.01324662 14.40450153 8 10 C5.05530382 12.43257511 4.52112197 14.26529257 4 18 C2.50375877 27.25723233 -0.07256359 35.63295433 -3.828125 44.2265625 C-4.7890743 46.50080918 -5.53824452 48.70601227 -6.25 51.0625 C-8.73652169 57.89328948 -14.52951039 63.58789714 -19.64453125 68.58203125 C-21.72412871 70.71680874 -22.98507626 72.37590365 -24.3125 75 C-26.43409145 79.01418573 -28.73075623 82.89385208 -31.125 86.75 C-32.41782924 88.83261209 -33.70958158 90.91589327 -35 93 C-35.56074219 93.76183594 -36.12148437 94.52367187 -36.69921875 95.30859375 C-38.60022111 99.24189894 -38.56822046 102.99458061 -38.6875 107.3125 C-38.72166016 108.14845703 -38.75582031 108.98441406 -38.79101562 109.84570312 C-38.87305461 111.89667772 -38.9382151 113.94831538 -39 116 C-44.27954489 108.08068267 -45.68324246 100.68734809 -46.60546875 91.37890625 C-46.78966158 88.13695638 -46.78966158 88.13695638 -48 86 C-48.35294118 79.52941176 -48.35294118 79.52941176 -46 76 C-45.40936404 73.69898075 -44.99209054 71.39449232 -44.5625 69.05859375 C-44 67 -44 67 -42 65 C-41.608125 63.824375 -41.21625 62.64875 -40.8125 61.4375 C-39.23255028 56.96502694 -36.63713628 53.82225793 -33.65234375 50.1875 C-31.44547888 47.2658822 -30.24055441 44.42976808 -29 41 C-28.34 41 -27.68 41 -27 41 C-26.9071875 39.2984375 -26.9071875 39.2984375 -26.8125 37.5625 C-26.27938803 33.08276803 -24.50656493 29.87688983 -22.15625 26.078125 C-21.0206149 24.0370511 -20.45193615 22.2802233 -20 20 C-19.01 20 -18.02 20 -17 20 C-16.731875 19.195625 -16.46375 18.39125 -16.1875 17.5625 C-15.5996875 16.2940625 -15.5996875 16.2940625 -15 15 C-14.01 14.67 -13.02 14.34 -12 14 C-11.814375 13.10667969 -11.814375 13.10667969 -11.625 12.1953125 C-10.7005177 8.94806844 -8.66393602 7.86538401 -6 5.875 C-2.45327277 3.39933745 -2.45327277 3.39933745 0 0 Z " fill="#202020" transform="translate(190,174)"/>
<path d="M0 0 C0.99 0 1.98 0 3 0 C3 0.66 3 1.32 3 2 C6.85450788 3.28483596 10.56524139 3.42211748 14.6015625 3.71875 C17 4 17 4 18 5 C18.23481693 7.18292774 18.41363323 9.37203174 18.5625 11.5625 C18.68818359 13.35880859 18.68818359 13.35880859 18.81640625 15.19140625 C18.87699219 16.11824219 18.93757813 17.04507813 19 18 C19.99 18.33 20.98 18.66 22 19 C22.12375 20.7325 22.12375 20.7325 22.25 22.5 C22.73966625 26.56134949 24.07096654 29.59686693 26.0625 33.140625 C27.03887737 35.07710679 27.55071257 36.88460502 28 39 C28.66 39 29.32 39 30 39 C31.85611274 40.54676062 32.9022651 41.77660593 33.875 44 C34.86726309 46.17910079 34.86726309 46.17910079 37.1875 47.1875 C41.41768244 49.91361757 44.24641174 53.81803742 47 58 C47 58.66 47 59.32 47 60 C47.66 60 48.32 60 49 60 C50.65965421 62.38990207 51.86594384 64.39674726 52.5 67.25 C52.7475 68.11625 52.7475 68.11625 53 69 C53.99 69.33 54.98 69.66 56 70 C56 70.66 56 71.32 56 72 C57.485 72.495 57.485 72.495 59 73 C62 78.22222222 62 78.22222222 62 81 C63.485 81.495 63.485 81.495 65 82 C65 82.66 65 83.32 65 84 C65.66 84 66.32 84 67 84 C67.28875 84.804375 67.5775 85.60875 67.875 86.4375 C68.73262568 89.1326468 68.73262568 89.1326468 71 90 C71 90.99 71 91.98 71 93 C71.66 93 72.32 93 73 93 C75.13970472 95.88394984 76.31172812 98.79944723 77.375 102.1875 C78.77065434 106.6181487 80.73484923 110.58205694 82.859375 114.703125 C84.73531755 118.48070794 86 121.7751685 86 126 C86.66 126 87.32 126 88 126 C88.13277344 127.07121094 88.26554687 128.14242187 88.40234375 129.24609375 C88.5805056 130.64325769 88.75890319 132.04039159 88.9375 133.4375 C89.02451172 134.14455078 89.11152344 134.85160156 89.20117188 135.58007812 C89.38216191 139.08817968 89.38216191 139.08817968 91 142 C91.2792944 145.24150779 91.2318318 148.49789302 91.25 151.75 C91.270625 152.6575 91.29125 153.565 91.3125 154.5 C91.34194558 159.53519338 91.23009685 162.89181858 88 167 C87.34 167.99 86.68 168.98 86 170 C85.97494385 169.34515625 85.9498877 168.6903125 85.92407227 168.015625 C85.80707345 165.01026764 85.68482365 162.00514515 85.5625 159 C85.52318359 157.97003906 85.48386719 156.94007813 85.44335938 155.87890625 C85.13296567 144.65495534 85.13296567 144.65495534 82.125 133.9375 C81.76921875 133.09574219 81.4134375 132.25398437 81.046875 131.38671875 C80.70140625 130.59910156 80.3559375 129.81148437 80 129 C77.0699915 122.24766223 77.0699915 122.24766223 76.1875 119.125 C73.37268581 111.71759425 68.75313846 106.33824299 62.63671875 101.41015625 C61 100 61 100 60 98 C59.38898438 97.87753906 58.77796875 97.75507813 58.1484375 97.62890625 C55.23059786 96.77477501 54.40321047 95.37106034 52.625 92.9375 C52.02300781 92.12539062 51.42101562 91.31328125 50.80078125 90.4765625 C50.20652344 89.65929687 49.61226562 88.84203125 49 88 C47.93862008 86.60331478 46.87619565 85.2074224 45.8125 83.8125 C44.0345799 81.45605035 42.48376834 79.15525728 40.9375 76.625 C39.28718739 73.83554232 39.28718739 73.83554232 36.7265625 73.33203125 C32.58633951 71.30937217 30.85834679 67.8801183 28.4375 64.0625 C24.48661756 57.83390426 24.48661756 57.83390426 19 53 C18.67 52.01 18.34 51.02 18 50 C17.38125 49.443125 16.7625 48.88625 16.125 48.3125 C13.80582086 45.78868741 13.12430842 43.55415194 12.05078125 40.3515625 C10.26461302 36.35426408 7.5146012 33.05510135 4.83984375 29.61328125 C3.08543341 27.12134809 1.99681954 24.86650178 1 22 C0.01 22 -0.98 22 -2 22 C-4.475 26.455 -4.475 26.455 -7 31 C-7.33 31 -7.66 31 -8 31 C-8 29.35 -8 27.7 -8 26 C-7.34 26 -6.68 26 -6 26 C-5.67 21.38 -5.34 16.76 -5 12 C-4.34 12 -3.68 12 -3 12 C-2.95101562 11.38511719 -2.90203125 10.77023438 -2.8515625 10.13671875 C-2.77679688 9.32847656 -2.70203125 8.52023438 -2.625 7.6875 C-2.55539063 6.88699219 -2.48578125 6.08648437 -2.4140625 5.26171875 C-2 3 -2 3 0 0 Z " fill="#202020" transform="translate(199,78)"/>
<path d="M0 0 C1.90871436 4.96265734 -0.57652612 8.9766048 -2.5 13.625 C-4.24034417 18.15165276 -4.88773969 22.77459659 -5.5703125 27.55859375 C-6 30 -6 30 -7 31 C-7.08029968 32.33237982 -7.13886782 33.66608886 -7.1875 35 C-7.75064733 40.58677907 -10.1309294 44.9511717 -14 49 C-16.703125 50.25390625 -16.703125 50.25390625 -19 51 C-19.391875 50.2575 -19.78375 49.515 -20.1875 48.75 C-22.21121812 45.67953113 -23.89692103 43.97468662 -27 42 C-30.689748 41.19777849 -30.689748 41.19777849 -34 41 C-34 39.35 -34 37.7 -34 36 C-33.34 36 -32.68 36 -32 36 C-32 35.01 -32 34.02 -32 33 C-25.565 32.505 -25.565 32.505 -19 32 C-18.8046875 35.09244792 -18.609375 38.18489583 -18.4140625 41.27734375 C-18.27742188 42.17582031 -18.14078125 43.07429688 -18 44 C-17.34 44.33 -16.68 44.66 -16 45 C-16.495 35.1 -16.495 35.1 -17 25 C-18.65 26.65 -20.3 28.3 -22 30 C-25.04296875 30.6015625 -25.04296875 30.6015625 -28.1875 30.625 C-31.27590677 30.6029984 -31.27590677 30.6029984 -34 31 C-36.29633824 34.44450737 -36.54016485 36.93812283 -37 41 C-38.65 41 -40.3 41 -42 41 C-42.45223847 34.0531146 -42.69512068 28.47083627 -38 23 C-35.80591055 20.80102393 -33.58160283 18.73590535 -31 17 C-30.34 17 -29.68 17 -29 17 C-29 16.34 -29 15.68 -29 15 C-25.535 14.505 -25.535 14.505 -22 14 C-22 13.34 -22 12.68 -22 12 C-16.06 11.505 -16.06 11.505 -10 11 C-9.67 9.68 -9.34 8.36 -9 7 C-8.34 6.34 -7.68 5.68 -7 5 C-6.01 5 -5.02 5 -4 5 C-4 4.34 -4 3.68 -4 3 C-2 1.375 -2 1.375 0 0 Z " fill="#202020" transform="translate(213,262)"/>
<path d="M0 0 C0.99 0.495 0.99 0.495 2 1 C1.23570339 2.44098611 0.46327445 3.87766054 -0.3125 5.3125 C-0.74175781 6.11300781 -1.17101562 6.91351563 -1.61328125 7.73828125 C-2.90632589 9.84721884 -4.24317023 11.28783539 -6 13 C-6.268125 13.7425 -6.53625 14.485 -6.8125 15.25 C-8.24119609 18.55855937 -10.22993063 20.7252551 -12.66015625 23.3515625 C-14.22046555 25.07311195 -14.22046555 25.07311195 -15 28 C-15.9887651 29.01111007 -16.99029195 30.00980322 -18 31 C-19.4951351 33.18142662 -20.89692117 35.40985825 -22.3046875 37.6484375 C-24.29590172 40.41044432 -26.54603092 42.64168788 -29 45 C-36.94132043 52.70813321 -44.34135468 60.43385024 -50 70 C-50.64710938 70.94359375 -51.29421875 71.8871875 -51.9609375 72.859375 C-54.14411321 76.22196747 -55.89704288 79.6411692 -57.625 83.25 C-60.73214286 89.73214286 -60.73214286 89.73214286 -63 92 C-66.93563632 104.73294104 -66.2772732 118.48906629 -66.5625 131.6875 C-66.60578082 133.56446097 -66.64939784 135.44141422 -66.69335938 137.31835938 C-66.79945023 141.87882646 -66.90098746 146.43937398 -67 151 C-68.32 150.34 -69.64 149.68 -71 149 C-71.04982309 143.07756749 -71.08591813 137.1552598 -71.10986328 131.23266602 C-71.11985664 129.2222277 -71.13345588 127.21180367 -71.15087891 125.20141602 C-71.26431333 111.7661093 -71.22394952 99.58496931 -66 87 C-65.34 87 -64.68 87 -64 87 C-63.67 85.02 -63.34 83.04 -63 81 C-62.34 81 -61.68 81 -61 81 C-60.67 78.36 -60.34 75.72 -60 73 C-59.34 73 -58.68 73 -58 73 C-57.67 71.68 -57.34 70.36 -57 69 C-56.34 69 -55.68 69 -55 69 C-54.87625 68.195625 -54.7525 67.39125 -54.625 66.5625 C-54.315625 65.2940625 -54.315625 65.2940625 -54 64 C-53.01 63.505 -53.01 63.505 -52 63 C-51.67 62.01 -51.34 61.02 -51 60 C-50.34 60 -49.68 60 -49 60 C-48.773125 59.29875 -48.54625 58.5975 -48.3125 57.875 C-46.66158712 54.25871465 -44.7091165 51.91230024 -42 49 C-41.34 49 -40.68 49 -40 49 C-39.67 47.02 -39.34 45.04 -39 43 C-38.34 43 -37.68 43 -37 43 C-36.67 41.68 -36.34 40.36 -36 39 C-35.34 39 -34.68 39 -34 39 C-33.67 37.35 -33.34 35.7 -33 34 C-32.34 34 -31.68 34 -31 34 C-30.67 32.68 -30.34 31.36 -30 30 C-29.34 30 -28.68 30 -28 30 C-27.505 28.515 -27.505 28.515 -27 27 C-26.34 27 -25.68 27 -25 27 C-24.505 25.515 -24.505 25.515 -24 24 C-23.34 24 -22.68 24 -22 24 C-21.505 22.515 -21.505 22.515 -21 21 C-16.11730205 15.45747801 -16.11730205 15.45747801 -12 15 C-11.9175 14.38125 -11.835 13.7625 -11.75 13.125 C-11 11 -11 11 -8.9375 9.75 C-8.298125 9.5025 -7.65875 9.255 -7 9 C-7 8.34 -7 7.68 -7 7 C-6.01 7 -5.02 7 -4 7 C-4 6.01 -4 5.02 -4 4 C-3.01 4 -2.02 4 -1 4 C-0.67 2.68 -0.34 1.36 0 0 Z " fill="#232323" transform="translate(179,128)"/>
<path d="M0 0 C6.56887367 0.01020011 9.8327963 1.36011821 14.765625 5.56640625 C15.590625 6.04078125 16.415625 6.51515625 17.265625 7.00390625 C23.52956548 10.91886905 27.96143495 15.79427629 32.515625 21.50390625 C33.22356201 22.38139526 33.22356201 22.38139526 33.94580078 23.27661133 C37.63840703 28.01736894 39.79858315 32.66528071 41.703125 38.37890625 C42.55797656 40.70581154 42.55797656 40.70581154 44.67578125 41.515625 C48.51445737 43.44572571 50.1485784 46.76429984 51.765625 50.56640625 C53.08408381 55.25990346 54.02707213 60.03198211 54.96875 64.8125 C55.3623089 68.34471077 55.3623089 68.34471077 56.765625 69.56640625 C57.24635272 73.20190961 57.63853191 76.83717776 58.015625 80.484375 C58.09313337 84.34483146 58.09313337 84.34483146 59.765625 87.56640625 C60.04725047 90.7240251 59.99756996 93.89774727 60.015625 97.06640625 C60.03625 97.94039063 60.056875 98.814375 60.078125 99.71484375 C60.11638863 106.16226562 59.66197398 113.11314386 55.34863281 118.25585938 C53.765625 119.56640625 53.765625 119.56640625 50.765625 120.56640625 C51.03375 119.90640625 51.301875 119.24640625 51.578125 118.56640625 C51.97 117.57640625 52.361875 116.58640625 52.765625 115.56640625 C53.52359375 113.80296875 53.52359375 113.80296875 54.296875 112.00390625 C56.08745101 107.21881233 56.31687452 102.63492399 56.453125 97.56640625 C56.48728516 96.69628906 56.52144531 95.82617188 56.55664062 94.9296875 C56.63820483 92.8090181 56.70361028 90.68773734 56.765625 88.56640625 C56.105625 88.56640625 55.445625 88.56640625 54.765625 88.56640625 C54.64445312 87.34824219 54.52328125 86.13007813 54.3984375 84.875 C54.22949428 83.25126796 54.06020504 81.6275719 53.890625 80.00390625 C53.81199219 79.20404297 53.73335938 78.40417969 53.65234375 77.58007812 C53.13552714 72.71007543 52.25301196 68.25442961 50.765625 63.56640625 C50.270625 61.90738281 50.270625 61.90738281 49.765625 60.21484375 C49.435625 59.13460937 49.105625 58.054375 48.765625 56.94140625 C48.435625 55.85601562 48.105625 54.770625 47.765625 53.65234375 C47.435625 52.63398438 47.105625 51.615625 46.765625 50.56640625 C46.476875 49.65117187 46.188125 48.7359375 45.890625 47.79296875 C44.52564369 45.09144324 43.45877184 44.78116538 40.765625 43.56640625 C37.900503 40.03573183 35.84691203 35.95262304 34.140625 31.75390625 C32.89005255 28.85485194 32.02143758 27.61714496 29.765625 25.56640625 C29.270625 24.08140625 29.270625 24.08140625 28.765625 22.56640625 C27.940625 21.90640625 27.115625 21.24640625 26.265625 20.56640625 C23.765625 18.56640625 23.765625 18.56640625 22.765625 15.56640625 C21.11741256 14.53627348 19.45058798 13.53525997 17.765625 12.56640625 C17.270625 11.57640625 17.270625 11.57640625 16.765625 10.56640625 C15.12199366 9.84481201 13.45512114 9.17289204 11.765625 8.56640625 C11.765625 7.90640625 11.765625 7.24640625 11.765625 6.56640625 C11.12625 6.42203125 10.486875 6.27765625 9.828125 6.12890625 C7.765625 5.56640625 7.765625 5.56640625 6.765625 4.56640625 C5.41815416 4.33565543 4.06184935 4.15487562 2.703125 4.00390625 C1.40375 3.85953125 0.104375 3.71515625 -1.234375 3.56640625 C-1.47027344 4.15292969 -1.70617187 4.73945313 -1.94921875 5.34375 C-3.5158473 8.05320788 -5.26287549 9.31077177 -7.796875 11.12890625 C-11.43334914 13.63374912 -11.43334914 13.63374912 -13.234375 17.56640625 C-14.54704018 18.92009221 -15.88004825 20.25440221 -17.234375 21.56640625 C-17.564375 22.22640625 -17.894375 22.88640625 -18.234375 23.56640625 C-19.224375 23.56640625 -20.214375 23.56640625 -21.234375 23.56640625 C-21.316875 24.59765625 -21.399375 25.62890625 -21.484375 26.69140625 C-22.30840908 30.94891568 -23.8388295 33.00938414 -26.234375 36.56640625 C-27.1065462 39.22146885 -27.66659982 41.82215955 -28.234375 44.56640625 C-30.709375 45.06140625 -30.709375 45.06140625 -33.234375 45.56640625 C-32.945625 45.05078125 -32.656875 44.53515625 -32.359375 44.00390625 C-31.13331673 41.54114918 -31.13331673 41.54114918 -30.484375 38.62890625 C-28.16272129 30.20148609 -24.64031614 22.55278895 -18.234375 16.56640625 C-17.47125 15.59703125 -16.708125 14.62765625 -15.921875 13.62890625 C-13.39008439 10.50234578 -10.40093127 8.33092165 -7.1015625 6.05859375 C-5.12030613 4.62766831 -5.12030613 4.62766831 -3.7890625 2.421875 C-2.234375 0.56640625 -2.234375 0.56640625 0 0 Z " fill="#F2F2F2" transform="translate(191.234375,170.43359375)"/>
<path d="M0 0 C0.67675781 -0.03802734 1.35351562 -0.07605469 2.05078125 -0.11523438 C5.89618308 -0.17932441 8.32005977 0.38123845 11.30078125 2.7109375 C13.8125 5.375 13.8125 5.375 13.8125 8.375 C12.85537109 8.66503906 12.85537109 8.66503906 11.87890625 8.9609375 C11.05261719 9.22132813 10.22632813 9.48171875 9.375 9.75 C8.55128906 10.00523437 7.72757813 10.26046875 6.87890625 10.5234375 C4.63451984 11.18382227 4.63451984 11.18382227 3.8125 13.375 C4.864375 13.045 5.91625 12.715 7 12.375 C10.20123357 11.53533218 12.5536008 11.17749096 15.8125 11.375 C14.68249087 16.17753881 11.91021405 18.45383481 8.0546875 21.21484375 C4.4757335 23.06667187 1.7709144 22.79911583 -2.1875 22.375 C-2.5175 21.715 -2.8475 21.055 -3.1875 20.375 C-8.4675 20.375 -13.7475 20.375 -19.1875 20.375 C-19.5175 19.055 -19.8475 17.735 -20.1875 16.375 C-17.8775 16.375 -15.5675 16.375 -13.1875 16.375 C-13.5175 15.715 -13.8475 15.055 -14.1875 14.375 C-16.50906597 13.96770772 -18.8443787 13.63061323 -21.1875 13.375 C-20.8575 10.075 -20.5275 6.775 -20.1875 3.375 C-19.1975 3.375 -18.2075 3.375 -17.1875 3.375 C-17.1875 2.715 -17.1875 2.055 -17.1875 1.375 C-11.47446526 0.55885218 -5.76767679 0.16433638 0 0 Z " fill="#202020" transform="translate(177.1875,305.625)"/>
<path d="M0 0 C0.66 0.33 1.32 0.66 2 1 C2.26380359 4.1920234 2.36684863 7.34012141 2.390625 10.54101562 C2.42908841 12.80638936 2.42908841 12.80638936 3 16 C4.90592062 17.34923166 4.90592062 17.34923166 7 18 C7.33 18.99 7.66 19.98 8 21 C9.63928397 21.73141663 11.31225055 22.3886703 13 23 C14.68589258 23.94568037 16.35276078 24.92599217 18 25.9375 C18.825 26.44152344 19.65 26.94554687 20.5 27.46484375 C21.325 27.97144531 22.15 28.47804687 23 29 C23.86367187 29.45890625 24.72734375 29.9178125 25.6171875 30.390625 C28.37502688 32.25329684 29.5023971 33.92639484 31.125 36.8125 C31.62902344 37.69679687 32.13304687 38.58109375 32.65234375 39.4921875 C33.70561591 41.4521896 34.70696596 43.44011585 35.6875 45.4375 C36.81620379 47.9710426 36.81620379 47.9710426 38.47827148 49.45849609 C44.33934558 55.39573689 43.49445418 64.57526812 43.44604492 72.29882812 C43.43754404 74.36429975 43.46634641 76.42698841 43.49804688 78.4921875 C43.53770068 86.41651782 42.71748125 92.91556399 39 100 C38.34 100 37.68 100 37 100 C37 101.98 37 103.96 37 106 C36.01 106.495 36.01 106.495 35 107 C33.96564444 108.64556566 32.97236487 110.3170608 32 112 C28.55076495 117.78581363 28.55076495 117.78581363 25.75 118.875 C25.1725 118.91625 24.595 118.9575 24 119 C25.1332326 114.6731119 26.65694111 112.25421949 29.63671875 108.984375 C32.17407411 105.29103253 33.36803777 100.9506261 34.7890625 96.73046875 C35.18867188 95.82941406 35.58828125 94.92835938 36 94 C36.99 93.67 37.98 93.34 39 93 C39 81.12 39 69.24 39 57 C38.01 57 37.02 57 36 57 C35.773125 56.01 35.54625 55.02 35.3125 54 C34.02761679 49.46619783 31.58198203 45.89346496 29 42 C28.46375 41.071875 27.9275 40.14375 27.375 39.1875 C25.6009958 36.36522059 23.98789632 34.49394816 21 33 C21 32.34 21 31.68 21 31 C20.29875 30.731875 19.5975 30.46375 18.875 30.1875 C15.83261204 28.93086149 12.9310067 27.49668427 10 26 C9.29875 25.71125 8.5975 25.4225 7.875 25.125 C5.27874391 23.56724635 3.8316366 21.38112757 2 19 C1.34 18.67 0.68 18.34 0 18 C0 17.01 0 16.02 0 15 C-0.66 15 -1.32 15 -2 15 C-2.09796875 15.76183594 -2.1959375 16.52367187 -2.296875 17.30859375 C-3.36426494 24.67910529 -4.52982242 32.52982242 -10 38 C-10.66 38 -11.32 38 -12 38 C-11.39853828 35.41989785 -10.67211919 33.17249129 -9.6875 30.6875 C-6.82756583 23.1925001 -4.56279928 15.1300158 -3.48046875 7.1875 C-2.97989595 3.86662676 -2.24174216 2.43667626 0 0 Z " fill="#F1F1F1" transform="translate(197,183)"/>
<path d="M0 0 C2 1.375 2 1.375 4 3 C4 3.66 4 4.32 4 5 C4.87205078 5.42152344 4.87205078 5.42152344 5.76171875 5.8515625 C7.8633362 6.92987931 9.8236298 8.10309523 11.8125 9.375 C14.44068217 11.04213048 17.08660129 12.62344563 19.8125 14.125 C24.52424879 16.89661693 26.24830897 18.82933483 28 24 C28.25878906 26.90673828 28.25878906 26.90673828 28.265625 30.0703125 C28.26949219 31.78541016 28.26949219 31.78541016 28.2734375 33.53515625 C28.26570313 34.71980469 28.25796875 35.90445313 28.25 37.125 C28.26160156 38.91357422 28.26160156 38.91357422 28.2734375 40.73828125 C28.27085937 41.87910156 28.26828125 43.01992188 28.265625 44.1953125 C28.26336914 45.23703613 28.26111328 46.27875977 28.25878906 47.35205078 C28 50 28 50 26 53 C25.34 53 24.68 53 24 53 C24.33 43.76 24.66 34.52 25 25 C24.34 25 23.68 25 23 25 C22.95359375 24.23816406 22.9071875 23.47632813 22.859375 22.69140625 C22.24035015 19.77444649 22.24035015 19.77444649 19.453125 18.33984375 C17.86757812 17.64568359 17.86757812 17.64568359 16.25 16.9375 C11.99069036 15.04389066 8.44938602 13.17471269 5 10 C5 9.34 5 8.68 5 8 C4.01 8 3.02 8 2 8 C2.01160156 8.65226563 2.02320313 9.30453125 2.03515625 9.9765625 C2.08470994 14.7761914 1.99413751 19.27784685 1 24 C-1.97 24.495 -1.97 24.495 -5 25 C-5 25.99 -5 26.98 -5 28 C-7.67653501 31.04827599 -10.14985942 33.58828179 -14 35 C-14.99 35 -15.98 35 -17 35 C-17 35.66 -17 36.32 -17 37 C-19.97 37.495 -19.97 37.495 -23 38 C-23 38.66 -23 39.32 -23 40 C-25.475 40.495 -25.475 40.495 -28 41 C-28.33 41.99 -28.66 42.98 -29 44 C-29.66 44 -30.32 44 -31 44 C-31 44.66 -31 45.32 -31 46 C-31.66 46 -32.32 46 -33 46 C-33.66 47.98 -34.32 49.96 -35 52 C-35.66 52 -36.32 52 -37 52 C-37.33 54.97 -37.66 57.94 -38 61 C-38.66 61 -39.32 61 -40 61 C-40 67.6 -40 74.2 -40 81 C-40.99 80.67 -41.98 80.34 -43 80 C-43.117791 76.68780768 -43.18777155 73.37616508 -43.25 70.0625 C-43.28351563 69.13630859 -43.31703125 68.21011719 -43.3515625 67.25585938 C-43.47478501 58.47625557 -40.74338158 52.16360564 -35.875 44.9375 C-35.37742188 44.18339844 -34.87984375 43.42929687 -34.3671875 42.65234375 C-33.91601562 42.10707031 -33.46484375 41.56179688 -33 41 C-32.34 41 -31.68 41 -31 41 C-30.67 40.01 -30.34 39.02 -30 38 C-27.45579081 36.18270772 -25.1752402 35.05451917 -22.1875 34.125 C-15.08783446 31.61923569 -10.61759933 27.80498201 -6 22 C-5.01 21.67 -4.02 21.34 -3 21 C-1.85956028 16.09610922 -1.64912631 11.18281746 -1.39453125 6.17578125 C-1.10323661 1.10323661 -1.10323661 1.10323661 0 0 Z " fill="#F5F5F5" transform="translate(204,221)"/>
<path d="M0 0 C0.33 0 0.66 0 1 0 C1.39002726 12.28585868 -1.64295304 20.40957891 -8 31 C-8.39058594 31.66773438 -8.78117187 32.33546875 -9.18359375 33.0234375 C-12.5773422 37.92137483 -18.40665403 39.74452761 -24 41 C-24.99 40.67 -25.98 40.34 -27 40 C-26.34 40 -25.68 40 -25 40 C-23.70787893 37.04658042 -22.86306226 34.35744601 -22.1875 31.1875 C-20.29831636 23.50097418 -15.6650305 18.50381469 -10.06640625 13.16015625 C-7.08538168 10.0438867 -4.74366819 6.57882156 -2.34765625 3.00390625 C-1 1 -1 1 0 0 Z " fill="#222222" transform="translate(281,264)"/>
<path d="M0 0 C0.33 0 0.66 0 1 0 C0.89011864 4.25053264 0.75948796 8.50018035 0.625 12.75 C0.5940625 13.9565625 0.563125 15.163125 0.53125 16.40625 C0.47324219 18.14648438 0.47324219 18.14648438 0.4140625 19.921875 C0.3826416 20.99018555 0.3512207 22.05849609 0.31884766 23.15917969 C0.00259206 25.97690566 -0.66322035 27.54891394 -2 30 C-2.35543427 32.33006911 -2.6913753 34.66327016 -3 37 C-3.495 37.495 -3.495 37.495 -4 38 C-4.10526327 39.41520618 -4.18428376 40.83240688 -4.25 42.25 C-4.6183811 45.98134402 -4.93174503 46.9137832 -7.375 50 C-10 52 -10 52 -13 53 C-12.58522477 49.68179812 -11.62765558 47.15921111 -10.0625 44.25 C-6.63379116 37.55407948 -5.97033548 31.2169204 -5.625 23.75 C-5.22259202 16.35761639 -3.49273629 9.938116 -1 3 C-0.67 2.01 -0.34 1.02 0 0 Z " fill="#212121" transform="translate(290,243)"/>
<path d="M0 0 C1.1446875 0.1546875 1.1446875 0.1546875 2.3125 0.3125 C6.33032985 6.27836857 6.33032985 6.27836857 6.25 10.9375 C5.3165978 14.29774791 4.57230866 16.64915408 2.3125 19.3125 C-0.375 19.625 -0.375 19.625 -2.6875 19.3125 C-6.70532985 13.34663143 -6.70532985 13.34663143 -6.625 8.6875 C-4.35238652 0.50609146 -4.35238652 0.50609146 0 0 Z " fill="#D3D3D3" transform="translate(159.6875,379.6875)"/>
<path d="M0 0 C1.19109375 0.00773437 1.19109375 0.00773437 2.40625 0.015625 C3.2003125 0.01046875 3.994375 0.0053125 4.8125 0 C6.90625 0.265625 6.90625 0.265625 8.90625 2.265625 C9.20703125 4.32421875 9.20703125 4.32421875 9.21875 6.703125 C9.23550781 7.48558594 9.25226563 8.26804687 9.26953125 9.07421875 C8.81903504 11.79172815 8.11535529 12.65577126 5.90625 14.265625 C-0.1964904 14.91949004 -0.1964904 14.91949004 -2.79296875 13.02734375 C-4.45073967 10.78213448 -4.4654996 9.46962567 -4.40625 6.703125 C-4.40238281 5.91808594 -4.39851562 5.13304687 -4.39453125 4.32421875 C-3.9632673 1.37258107 -2.9588786 0.37538012 0 0 Z " fill="#F2F2F2" transform="translate(212.09375,385.734375)"/>
<path d="M0 0 C2 2 2 2 2.1953125 4.8203125 C2.16050781 6.45613281 2.16050781 6.45613281 2.125 8.125 C2.10695312 9.22070312 2.08890625 10.31640625 2.0703125 11.4453125 C2.04710937 12.28835938 2.02390625 13.13140625 2 14 C1.01 14 0.02 14 -1 14 C-1.33 10.7 -1.66 7.4 -2 4 C-3.65 4.33 -5.3 4.66 -7 5 C-7.33 7.97 -7.66 10.94 -8 14 C-9.32 14 -10.64 14 -12 14 C-12 9.71 -12 5.42 -12 1 C-7.73417857 0.14683571 -4.30701706 -0.24379342 0 0 Z " fill="#D0D0D0" transform="translate(238,385)"/>
<path d="M0 0 C2 2 2 2 2.1953125 4.8203125 C2.16050781 6.45613281 2.16050781 6.45613281 2.125 8.125 C2.10695312 9.22070312 2.08890625 10.31640625 2.0703125 11.4453125 C2.04710937 12.28835938 2.02390625 13.13140625 2 14 C1.01 14 0.02 14 -1 14 C-1.33 10.7 -1.66 7.4 -2 4 C-3.32 4.33 -4.64 4.66 -6 5 C-6.33 7.97 -6.66 10.94 -7 14 C-8.32 14 -9.64 14 -11 14 C-11 9.71 -11 5.42 -11 1 C-3.33333333 -0.27777778 -3.33333333 -0.27777778 0 0 Z " fill="#CCCCCC" transform="translate(182,385)"/>
<path d="M0 0 C0 3.63 0 7.26 0 11 C-0.66 11 -1.32 11 -2 11 C-1.98839844 11.61488281 -1.97679687 12.22976563 -1.96484375 12.86328125 C-1.95582031 13.67152344 -1.94679688 14.47976563 -1.9375 15.3125 C-1.92589844 16.11300781 -1.91429687 16.91351563 -1.90234375 17.73828125 C-2 20 -2 20 -3 23 C-6.91031269 25.64951093 -11.30943359 27.4136792 -16 28 C-13.59757773 24.82537057 -11.38286724 22.14248259 -8 20 C-7.34 20 -6.68 20 -6 20 C-5.93941406 19.21753906 -5.87882812 18.43507813 -5.81640625 17.62890625 C-5.73261719 16.61699219 -5.64882813 15.60507812 -5.5625 14.5625 C-5.48128906 13.55316406 -5.40007812 12.54382813 -5.31640625 11.50390625 C-5 9 -5 9 -4 8 C-3.855625 6.845 -3.71125 5.69 -3.5625 4.5 C-3.376875 3.345 -3.19125 2.19 -3 1 C-1 0 -1 0 0 0 Z " fill="#F4F4F4" transform="translate(290,272)"/>
<path d="M0 0 C0.13277344 0.63808594 0.26554688 1.27617187 0.40234375 1.93359375 C0.57894531 2.75988281 0.75554687 3.58617187 0.9375 4.4375 C1.11152344 5.26121094 1.28554687 6.08492188 1.46484375 6.93359375 C1.80752994 8.97661204 1.80752994 8.97661204 3 10 C3.99 7.36 4.98 4.72 6 2 C6.99 2 7.98 2 9 2 C8.54257146 6.66577113 8.0940533 10.35343718 5 14 C2.3125 14.3125 2.3125 14.3125 0 14 C-4.85308057 6.26540284 -4.85308057 6.26540284 -4 2 C-1 0 -1 0 0 0 Z " fill="#DCDCDC" transform="translate(157,385)"/>
<path d="M0 0 C-0.6171875 2.8203125 -0.6171875 2.8203125 -2 6 C-4.8203125 7.6796875 -4.8203125 7.6796875 -8.125 8.875 C-9.76855469 9.48988281 -9.76855469 9.48988281 -11.4453125 10.1171875 C-12.70988281 10.55417969 -12.70988281 10.55417969 -14 11 C-14.66 9.68 -15.32 8.36 -16 7 C-13 5 -13 5 -10 5 C-10 4.34 -10 3.68 -10 3 C-3.375 0 -3.375 0 0 0 Z " fill="#B0B0B0" transform="translate(257,308)"/>
<path d="M0 0 C2.31 0 4.62 0 7 0 C7 3.63 7 7.26 7 11 C7.99 11 8.98 11 10 11 C10 11.66 10 12.32 10 13 C6.7 13 3.4 13 0 13 C0 12.34 0 11.68 0 11 C1.32 11 2.64 11 4 11 C4 8.03 4 5.06 4 2 C2.68 2 1.36 2 0 2 C0 1.34 0 0.68 0 0 Z " fill="#F2F2F2" transform="translate(191,386)"/>
<path d="M0 0 C0.66 0 1.32 0 2 0 C2.78316087 8.96284102 2.78316087 8.96284102 -0.3125 13.0625 C-3 15 -3 15 -6 16 C-5.47446778 11.7957422 -3.8917069 8.56006378 -1.9375 4.8671875 C-0.87362707 2.8593422 -0.87362707 2.8593422 0 0 Z " fill="#292929" transform="translate(283,280)"/>
<path d="M0 0 C2.00720923 0.28674418 4.0085944 0.61866701 6 1 C6 3.31 6 5.62 6 8 C4.0085944 8.38133299 2.00720923 8.71325582 0 9 C-1 8 -1 8 -1.125 4.5 C-1 1 -1 1 0 0 Z " fill="#404040" transform="translate(212,388)"/>
<path d="M0 0 C3 0.125 3 0.125 4 1.125 C4.07244053 3.14464199 4.08377188 5.16667124 4.0625 7.1875 C4.05347656 8.29222656 4.04445312 9.39695312 4.03515625 10.53515625 C4.02355469 11.38980469 4.01195312 12.24445313 4 13.125 C3.01 13.125 2.02 13.125 1 13.125 C0.97421875 12.42632812 0.9484375 11.72765625 0.921875 11.0078125 C0.86515625 10.09773438 0.8084375 9.18765625 0.75 8.25 C0.70359375 7.34507812 0.6571875 6.44015625 0.609375 5.5078125 C0.24388852 2.95389456 0.24388852 2.95389456 -2.046875 1.8046875 C-2.69140625 1.58039063 -3.3359375 1.35609375 -4 1.125 C-3 0.125 -3 0.125 0 0 Z " fill="#EFEFEF" transform="translate(236,385.875)"/>
<path d="M0 0 C2.5 0.125 2.5 0.125 3.5 1.125 C3.57244053 3.14464199 3.58377188 5.16667124 3.5625 7.1875 C3.55347656 8.29222656 3.54445312 9.39695312 3.53515625 10.53515625 C3.52355469 11.38980469 3.51195312 12.24445313 3.5 13.125 C2.51 13.125 1.52 13.125 0.5 13.125 C0.46261719 12.42632812 0.42523438 11.72765625 0.38671875 11.0078125 C0.32097656 10.09773438 0.25523437 9.18765625 0.1875 8.25 C0.12949219 7.34507812 0.07148438 6.44015625 0.01171875 5.5078125 C-0.2882039 2.76278399 -0.2882039 2.76278399 -3.5 1.125 C-2.5 0.125 -2.5 0.125 0 0 Z " fill="#EDEDED" transform="translate(180.5,385.875)"/>
<path d="M0 0 C2.0625 1.6875 2.0625 1.6875 4 4 C3.92509796 7.07098379 3.44344796 8.48560036 1.4375 10.8125 C0.963125 11.204375 0.48875 11.59625 0 12 C-1.85274014 8.87350101 -2.37198336 6.62683775 -2 3 C-1.34 2.01 -0.68 1.02 0 0 Z " fill="#303030" transform="translate(159,384)"/>
<path d="M0 0 C0.66 0.33 1.32 0.66 2 1 C0.47549821 6.80054339 -0.65326391 10.67635324 -6 14 C-6.37096774 8.43548387 -6.37096774 8.43548387 -4.5625 6.3125 C-4.046875 5.879375 -3.53125 5.44625 -3 5 C-2.67 4.01 -2.34 3.02 -2 2 C-1.34 2 -0.68 2 0 2 C0 1.34 0 0.68 0 0 Z " fill="#292929" transform="translate(256,290)"/>
<path d="M0 0 C1.03115279 3.26913624 0.9638984 5.86041348 0.5625 9.25 C0.46066406 10.14203125 0.35882813 11.0340625 0.25390625 11.953125 C0.12822266 12.96632813 0.12822266 12.96632813 0 14 C-0.99 14 -1.98 14 -3 14 C-3.08082094 12.04233719 -3.13910778 10.08373272 -3.1875 8.125 C-3.22230469 7.03445313 -3.25710937 5.94390625 -3.29296875 4.8203125 C-3.19628906 3.88960938 -3.09960938 2.95890625 -3 2 C-2.01 1.34 -1.02 0.68 0 0 Z " fill="#FBFBFB" transform="translate(171,288)"/>
<path d="M0 0 C0.99 0 1.98 0 3 0 C2.54257146 4.66577113 2.0940533 8.35343718 -1 12 C-3.6875 12.3125 -3.6875 12.3125 -6 12 C-6 11.34 -6 10.68 -6 10 C-4.68 10 -3.36 10 -2 10 C-1.855625 9.0925 -1.71125 8.185 -1.5625 7.25 C-1.13590527 4.78523044 -0.64925779 2.41152893 0 0 Z " fill="#ECECEC" transform="translate(163,387)"/>
<path d="M0 0 C1.98 0.66 3.96 1.32 6 2 C6 2.66 6 3.32 6 4 C7.32 4.66 8.64 5.32 10 6 C8.52093108 6.02689216 7.04172517 6.04634621 5.5625 6.0625 C4.32693359 6.07990234 4.32693359 6.07990234 3.06640625 6.09765625 C1 6 1 6 0 5 C-0.04063832 3.33382885 -0.042721 1.66611905 0 0 Z " fill="#2A2A2A" transform="translate(205,73)"/>
<path d="M0 0 C0.33 0 0.66 0 1 0 C1.08131463 1.43655854 1.13933559 2.8744483 1.1875 4.3125 C1.22230469 5.11300781 1.25710937 5.91351563 1.29296875 6.73828125 C1 9 1 9 -0.28125 10.78125 C-3.03237667 12.73204891 -5.74123057 12.18445865 -9 12 C-9 11.67 -9 11.34 -9 11 C-7.02 11 -5.04 11 -3 11 C-3.33 10.01 -3.66 9.02 -4 8 C-3.01 7.67 -2.02 7.34 -1 7 C-0.67 4.69 -0.34 2.38 0 0 Z " fill="#C2C2C2" transform="translate(220,388)"/>
<path d="M0 0 C1.65 0 3.3 0 5 0 C5 1.32 5 2.64 5 4 C3.35 4 1.7 4 0 4 C0 2.68 0 1.36 0 0 Z " fill="#CDCDCD" transform="translate(193,379)"/>
<path d="M0 0 C2 1.375 2 1.375 4 3 C4 3.66 4 4.32 4 5 C2.35 5.33 0.7 5.66 -1 6 C-1.33 4.35 -1.66 2.7 -2 1 C-1.34 0.67 -0.68 0.34 0 0 Z " fill="#D5D5D5" transform="translate(157,392)"/>
</svg>
